<svg width="24" height="24" viewBox="0 0 24 24" fill="none" xmlns="http://www.w3.org/2000/svg">
  <!-- Main chat bubble with "P" -->
  <path d="M4 4 h12 a2 2 0 0 1 2 2 v8 a2 2 0 0 1 -2 2 h-6 l-4 4 v-4 h-2 a2 2 0 0 1 -2 -2 v-8 a2 2 0 0 1 2 -2 z" 
        fill="none" stroke="currentColor" stroke-width="1.5" stroke-linejoin="round"/>
  
  <!-- Stylized "P" inside bubble -->
  <path d="M7 8 h4 a2 2 0 0 1 2 2 v0 a2 2 0 0 1 -2 2 h-4 M7 8 v6" 
        fill="none" stroke="currentColor" stroke-width="1.5" stroke-linecap="round" stroke-linejoin="round"/>
  
  <!-- Small indicator dots -->
  <circle cx="20" cy="4" r="1.5" fill="currentColor"/>
  <circle cx="20" cy="8" r="1.5" fill="currentColor"/>
</svg>